# xmcd CD database file
#
# Track frame offsets:
#	150
#	13945
#	36584
#	51958
#	71674
#	90075
#	112441
#	129497
#	144532
#	157499
#	169411
#
# Disc length: 2388 seconds
#
# Revision: 0
# Processed by: cddbd v1.5.2PL0 Copyright (c) Steve Scherf et al.
# Submitted via: CDex 1.51
#
DISCID=aa09520b
DTITLE=Geoffrey Fletcher - Bustered Old Tin Shed
DYEAR=2005
DGENRE=Country
TTITLE0=I have a little pony 
TTITLE1=Silvery moon 
TTITLE2=Dearest mother 
TTITLE3=Tell me why 
TTITLE4=Damper and tea 
TTITLE5=Desert Rose 
TTITLE6=Man from Kal 
TTITLE7=Tears
TTITLE8=Open road 
TTITLE9=I've been everywhere 
TTITLE10=In the arms of the lord 
EXTD=YEAR: 2005
EXTT0=
EXTT1=
EXTT2=
EXTT3=
EXTT4=
EXTT5=
EXTT6=
EXTT7=
EXTT8=
EXTT9=
EXTT10=
PLAYORDER=
